<svg width="70" height="70" viewBox="0 0 70 70" fill="none" xmlns="http://www.w3.org/2000/svg">
<g clip-path="url(#clip0_97_42)">
<path d="M22.43 0C23.2433 0.333333 23.8433 1.26667 24.23 2.8C24.2868 3.0155 24.3859 3.21755 24.5215 3.39438C24.6571 3.57121 24.8266 3.71929 25.02 3.83L29.62 6.49C29.8488 6.62174 30.1032 6.70246 30.3656 6.72663C30.628 6.7508 30.8922 6.71783 31.14 6.63C33.0067 5.98333 34.2667 6.37667 34.92 7.81C35.1067 8.22333 36.02 9.82333 37.66 12.61C37.8719 12.9707 37.9574 13.3917 37.9031 13.8065C37.8488 14.2213 37.6577 14.6061 37.36 14.9L35.94 16.32C35.8259 16.4368 35.7416 16.5789 35.6946 16.7339C35.6476 16.8889 35.6391 17.0523 35.67 17.21C35.99 18.85 35.99 20.59 35.67 22.43C35.6423 22.5847 35.6533 22.7446 35.702 22.8962C35.7508 23.0477 35.8359 23.1862 35.95 23.3L37.3 24.65C37.6129 24.9622 37.8138 25.3694 37.8717 25.8087C37.9295 26.248 37.8411 26.6948 37.62 27.08L34.59 32.33C34.3832 32.6894 34.0687 32.975 33.6904 33.1471C33.3122 33.3192 32.889 33.3692 32.48 33.29L30.4 32.87C30.2343 32.8385 30.0635 32.8436 29.8994 32.885C29.7354 32.9265 29.582 33.0033 29.45 33.11C28.11 34.2233 26.6867 35.0433 25.18 35.57C25.0212 35.6263 24.8775 35.7177 24.7596 35.8372C24.6418 35.9568 24.553 36.1014 24.5 36.26L23.82 38.27C23.6859 38.6714 23.4284 39.0206 23.0839 39.2682C22.7394 39.5158 22.3252 39.6494 21.9 39.65H16.02C15.5636 39.6499 15.1188 39.5058 14.7489 39.2383C14.3791 38.9708 14.103 38.5935 13.96 38.16L13.35 36.27C13.303 36.1203 13.2218 35.9831 13.1126 35.8687C13.0034 35.7543 12.8692 35.6659 12.72 35.61C10.92 34.9033 9.57 34.1367 8.67 33.31C8.42892 33.0903 8.13229 32.9414 7.81288 32.8796C7.49347 32.8179 7.1637 32.8457 6.86 32.96C4.98667 33.6533 3.69667 33.3433 2.99 32.03C2.03667 30.2567 1.04 28.5033 0 26.77V25.56L1.88 23.14C1.98418 23.0008 2.05915 22.8422 2.1004 22.6738C2.14164 22.5053 2.14831 22.3306 2.12 22.16C1.85333 20.5533 1.85333 19.0033 2.12 17.51C2.15716 17.3163 2.15042 17.1162 2.10027 16.9243C2.05012 16.7323 1.95781 16.5532 1.83 16.4L0 14.2V12.92L3.39 7.12C3.56037 6.82957 3.81552 6.59822 4.12119 6.45701C4.42686 6.31579 4.76841 6.27147 5.1 6.33L7.4 6.74C7.58461 6.77414 7.77521 6.76676 7.95835 6.71838C8.1415 6.67 8.31274 6.5818 8.46 6.46C9.63333 5.47333 11.0333 4.67 12.66 4.05C12.8267 3.98537 12.9756 3.88072 13.094 3.74494C13.2124 3.60915 13.2968 3.44623 13.34 3.27C13.66 1.96333 14.2233 0.873333 15.03 0H22.43ZM25.24 9.21C25.1406 9.17432 25.049 9.12002 24.97 9.05L19.47 4.28C19.3196 4.15114 19.1281 4.08032 18.93 4.08032C18.7319 4.08032 18.5404 4.15114 18.39 4.28L12.89 9.05C12.811 9.12002 12.7194 9.17432 12.62 9.21L5.74 11.59C5.5504 11.6541 5.39033 11.7845 5.28927 11.9572C5.1882 12.1299 5.15295 12.3333 5.19 12.53L6.58 19.67C6.60076 19.7757 6.60076 19.8843 6.58 19.99L5.19 27.13C5.15295 27.3267 5.1882 27.5301 5.28927 27.7028C5.39033 27.8756 5.5504 28.0059 5.74 28.07L12.62 30.45C12.7194 30.4857 12.811 30.54 12.89 30.61L18.39 35.38C18.5404 35.5089 18.7319 35.5797 18.93 35.5797C19.1281 35.5797 19.3196 35.5089 19.47 35.38L24.97 30.61C25.049 30.54 25.1406 30.4857 25.24 30.45L32.12 28.07C32.3096 28.0059 32.4697 27.8756 32.5707 27.7028C32.6718 27.5301 32.707 27.3267 32.67 27.13L31.28 19.99C31.2592 19.8843 31.2592 19.7757 31.28 19.67L32.67 12.53C32.707 12.3333 32.6718 12.1299 32.5707 11.9572C32.4697 11.7845 32.3096 11.6541 32.12 11.59L25.24 9.21Z" fill="#840007"/>
<path d="M61.83 20.42L62.87 19.24C63.0532 19.0326 63.2787 18.8669 63.5311 18.7539C63.7835 18.641 64.057 18.5835 64.333 18.5854C64.609 18.5873 64.8811 18.6485 65.1307 18.7649C65.3804 18.8813 65.6018 19.0501 65.78 19.26L65.98 19.5C66.2908 19.8664 66.4521 20.3365 66.4317 20.8165C66.4113 21.2965 66.2107 21.7513 65.87 22.09L60.48 27.49C60.0781 27.8875 59.536 28.1107 58.9721 28.1107C58.4081 28.1107 57.8681 27.8875 57.47 27.49L51.7 21.72C51.5586 21.5783 51.4544 21.4046 51.3968 21.2143C51.3392 21.0241 51.33 20.8233 51.37 20.63C51.69 19.0033 52.6633 18.38 54.29 18.76C54.4009 18.7862 54.5019 18.8454 54.58 18.93L56.23 20.57C56.2826 20.6231 56.3496 20.6595 56.4227 20.6747C56.4959 20.6899 56.5718 20.6832 56.6412 20.6555C56.7106 20.6277 56.7702 20.5802 56.8127 20.5187C56.8551 20.4573 56.8786 20.3847 56.88 20.31V8.06999C56.88 7.95064 56.8326 7.83618 56.7482 7.75179C56.6638 7.6674 56.5494 7.61999 56.43 7.61999H42.44C42.1861 7.61935 41.935 7.56643 41.7025 7.46457C41.4701 7.36271 41.2614 7.21411 41.0895 7.02813C40.9176 6.84214 40.7863 6.62279 40.7037 6.38389C40.6212 6.14499 40.5893 5.89171 40.61 5.63999L40.62 5.50999C40.6552 4.97483 40.891 4.47265 41.2803 4.10375C41.6696 3.73485 42.1837 3.52639 42.72 3.51999C44.0467 3.50666 48.4833 3.49666 56.03 3.48999C59.3 3.48999 61.08 4.36999 61.04 7.74999C60.96 13.8767 60.9633 18.0067 61.05 20.14C61.055 20.2282 61.0858 20.3131 61.1386 20.3839C61.1915 20.4548 61.2641 20.5085 61.3473 20.5383C61.4305 20.5682 61.5206 20.5729 61.6065 20.5519C61.6923 20.5308 61.7701 20.485 61.83 20.42Z" fill="#840007"/>
<path d="M26.43 19.84C26.43 21.8291 25.6398 23.7368 24.2333 25.1433C22.8268 26.5498 20.9191 27.34 18.93 27.34C16.9409 27.34 15.0332 26.5498 13.6267 25.1433C12.2202 23.7368 11.43 21.8291 11.43 19.84C11.43 17.8509 12.2202 15.9432 13.6267 14.5367C15.0332 13.1302 16.9409 12.34 18.93 12.34C20.9191 12.34 22.8268 13.1302 24.2333 14.5367C25.6398 15.9432 26.43 17.8509 26.43 19.84ZM22.35 19.81C22.35 18.9056 21.9907 18.0383 21.3512 17.3988C20.7117 16.7593 19.8444 16.4 18.94 16.4C18.0356 16.4 17.1683 16.7593 16.5288 17.3988C15.8893 18.0383 15.53 18.9056 15.53 19.81C15.53 20.7144 15.8893 21.5817 16.5288 22.2212C17.1683 22.8607 18.0356 23.22 18.94 23.22C19.8444 23.22 20.7117 22.8607 21.3512 22.2212C21.9907 21.5817 22.35 20.7144 22.35 19.81Z" fill="#840007"/>
<path d="M51.06 30.37C52.9067 30.3633 53.85 30.3633 53.89 30.37C54.3467 30.3917 54.7876 30.5423 55.1612 30.8044C55.5349 31.0665 55.8258 31.4291 56 31.85C56.69 33.54 58.25 36.9 55.95 37.86C55.7016 37.9627 55.4351 38.014 55.1665 38.0109C54.898 38.0077 54.6331 37.9501 54.3879 37.8416C54.1428 37.7331 53.9226 37.5759 53.7407 37.3796C53.5588 37.1833 53.4191 36.9521 53.33 36.7C53.15 36.18 52.9633 35.6567 52.77 35.13C52.7109 34.9661 52.6065 34.822 52.4686 34.7142C52.3307 34.6063 52.1649 34.5391 51.99 34.52C51.69 34.4867 51.38 34.47 51.06 34.47C50.7533 34.47 50.4467 34.49 50.14 34.53C49.9681 34.55 49.8052 34.6166 49.6693 34.7225C49.5334 34.8283 49.4299 34.9694 49.37 35.13C49.1767 35.6567 48.99 36.18 48.81 36.7C48.7228 36.9527 48.5849 37.1849 48.4046 37.3824C48.2243 37.58 48.0054 37.7388 47.7612 37.8492C47.517 37.9596 47.2527 38.0192 46.9843 38.0245C46.7159 38.0298 46.4491 37.9807 46.2 37.88C43.9 36.93 45.44 33.56 46.13 31.87C46.302 31.4487 46.5907 31.085 46.9625 30.8212C47.3343 30.5574 47.7739 30.4044 48.23 30.38C48.27 30.3733 49.2133 30.37 51.06 30.37Z" fill="#840007"/>
<path d="M33.89 40.27C34.8033 38.67 35.2733 37.85 35.3 37.81C35.5463 37.4259 35.896 37.1196 36.3085 36.9267C36.7209 36.7337 37.1792 36.662 37.63 36.72C39.44 36.96 43.13 37.28 42.82 39.75C42.7849 40.0161 42.6963 40.2723 42.5596 40.503C42.4229 40.7338 42.241 40.9343 42.025 41.0923C41.809 41.2504 41.5632 41.3627 41.3028 41.4225C41.0424 41.4822 40.7726 41.4882 40.51 41.44C39.97 41.34 39.4233 41.2433 38.87 41.15C38.6998 41.1208 38.5246 41.1399 38.3639 41.2053C38.2032 41.2706 38.0633 41.3796 37.96 41.52C37.78 41.7667 37.61 42.03 37.45 42.31C37.2967 42.5767 37.16 42.85 37.04 43.13C36.9694 43.2911 36.9451 43.4683 36.9699 43.6415C36.9946 43.8148 37.0674 43.9771 37.18 44.11C37.54 44.5367 37.9033 44.9567 38.27 45.37C38.4448 45.5723 38.5764 45.8082 38.6567 46.0633C38.7371 46.3185 38.7645 46.5876 38.7374 46.8542C38.7102 47.1208 38.6291 47.3794 38.4989 47.6142C38.3687 47.849 38.1922 48.0551 37.98 48.22C36.02 49.75 33.87 46.73 32.74 45.29C32.4604 44.9317 32.2884 44.501 32.2442 44.0478C32.1999 43.5946 32.2852 43.1376 32.49 42.73C32.51 42.69 32.9767 41.87 33.89 40.27Z" fill="#840007"/>
<path d="M70 43.2V44.41C68.8067 46.1833 67.7567 47.4133 66.85 48.1C65.03 49.47 62.49 47.71 63.72 45.73C63.76 45.6633 64.09 45.23 64.71 44.43C64.9521 44.113 65.0944 43.7311 65.1188 43.333C65.1432 42.9348 65.0486 42.5384 64.847 42.1942C64.6454 41.85 64.346 41.5736 63.9868 41.4001C63.6276 41.2266 63.2249 41.1639 62.83 41.22C61.28 41.44 59.84 41.84 59.38 39.93C59.2616 39.4377 59.326 38.9217 59.5601 38.4869C59.7942 38.0522 60.1804 37.7314 60.64 37.59C62.2933 37.0767 63.7533 36.7767 65.02 36.69C65.3597 36.6657 65.6997 36.737 66.0017 36.896C66.3038 37.055 66.556 37.2953 66.73 37.59L70 43.2Z" fill="#840007"/>
<path d="M8.94998 49.85C8.94504 49.7617 8.91421 49.6769 8.86134 49.6061C8.80848 49.5352 8.73592 49.4815 8.65273 49.4516C8.56953 49.4218 8.47938 49.4171 8.39353 49.4381C8.30768 49.4592 8.22993 49.505 8.16998 49.57L7.12998 50.75C6.94676 50.9574 6.72129 51.1231 6.46887 51.2361C6.21644 51.349 5.94296 51.4065 5.66696 51.4046C5.39097 51.4027 5.11892 51.3415 4.86926 51.2251C4.6196 51.1087 4.39817 50.9398 4.21998 50.73L4.01998 50.49C3.7092 50.1236 3.54792 49.6535 3.56831 49.1735C3.5887 48.6935 3.78925 48.2387 4.12998 47.9L9.51998 42.5C9.92185 42.1025 10.4639 41.8793 11.0279 41.8793C11.5918 41.8793 12.1318 42.1025 12.53 42.5L18.3 48.27C18.4414 48.4116 18.5456 48.5854 18.6032 48.7757C18.6608 48.9659 18.67 49.1667 18.63 49.36C18.31 50.9867 17.3366 51.61 15.71 51.23C15.599 51.2038 15.4981 51.1446 15.42 51.06L13.77 49.42C13.7174 49.3669 13.6504 49.3305 13.5773 49.3153C13.5041 49.3001 13.4281 49.3068 13.3588 49.3345C13.2894 49.3622 13.2298 49.4098 13.1873 49.4713C13.1448 49.5327 13.1214 49.6053 13.12 49.68V61.92C13.12 62.0393 13.1674 62.1538 13.2518 62.2382C13.3362 62.3226 13.4506 62.37 13.57 62.37H27.56C27.8149 62.3705 28.0669 62.4237 28.3 62.5262C28.5332 62.6286 28.7424 62.7782 28.9145 62.9653C29.0865 63.1523 29.2176 63.3729 29.2995 63.613C29.3813 63.8531 29.4122 64.1075 29.39 64.36L29.38 64.49C29.3424 65.0234 29.1055 65.5231 28.7165 65.8899C28.3274 66.2567 27.8146 66.4638 27.28 66.47C25.9533 66.4833 21.5166 66.4933 13.97 66.5C10.7 66.5 8.91998 65.62 8.95998 62.24C9.03998 56.1133 9.03665 51.9833 8.94998 49.85Z" fill="#840007"/>
<path d="M58.58 50.16C58.58 51.1462 58.3857 52.1228 58.0083 53.0339C57.6309 53.9451 57.0777 54.773 56.3804 55.4704C55.683 56.1677 54.8551 56.7209 53.944 57.0983C53.0328 57.4757 52.0562 57.67 51.07 57.67C50.0838 57.67 49.1072 57.4757 48.196 57.0983C47.2849 56.7209 46.457 56.1677 45.7596 55.4704C45.0623 54.773 44.5091 53.9451 44.1317 53.0339C43.7542 52.1228 43.56 51.1462 43.56 50.16C43.56 48.1682 44.3512 46.258 45.7596 44.8496C47.168 43.4412 49.0782 42.65 51.07 42.65C53.0618 42.65 54.972 43.4412 56.3804 44.8496C57.7888 46.258 58.58 48.1682 58.58 50.16ZM54.46 50.19C54.46 49.2883 54.1018 48.4235 53.4642 47.7858C52.8265 47.1482 51.9617 46.79 51.06 46.79C50.1583 46.79 49.2935 47.1482 48.6558 47.7858C48.0182 48.4235 47.66 49.2883 47.66 50.19C47.66 51.0917 48.0182 51.9565 48.6558 52.5942C49.2935 53.2318 50.1583 53.59 51.06 53.59C51.9617 53.59 52.8265 53.2318 53.4642 52.5942C54.1018 51.9565 54.46 51.0917 54.46 50.19Z" fill="#840007"/>
<path d="M37.46 58.02C37.6133 58.2933 37.7833 58.55 37.97 58.79C38.0733 58.9304 38.2132 59.0393 38.3739 59.1047C38.5346 59.17 38.7098 59.1892 38.88 59.16C39.4333 59.0667 39.98 58.9667 40.52 58.86C40.7833 58.8116 41.0538 58.817 41.3149 58.8761C41.5761 58.9352 41.8225 59.0466 42.0394 59.2037C42.2563 59.3607 42.439 59.5601 42.5766 59.7898C42.7142 60.0195 42.8038 60.2747 42.84 60.54C43.17 63.01 39.48 63.35 37.67 63.6C37.218 63.664 36.7569 63.5973 36.3406 63.4078C35.9244 63.2183 35.5703 62.9138 35.32 62.53C35.3 62.49 34.8267 61.67 33.9 60.07C32.98 58.4767 32.51 57.66 32.49 57.62C32.2803 57.213 32.1906 56.7551 32.2313 56.3C32.2721 55.8448 32.4416 55.4113 32.72 55.05C33.84 53.61 35.98 50.58 37.95 52.09C38.1622 52.2536 38.3389 52.4585 38.4696 52.6924C38.6003 52.9263 38.6821 53.1843 38.7101 53.4508C38.7382 53.7172 38.7119 53.9866 38.6328 54.2426C38.5537 54.4985 38.4235 54.7358 38.25 54.94C37.89 55.3533 37.5333 55.7767 37.18 56.21C37.0674 56.3429 36.9946 56.5052 36.9698 56.6784C36.9451 56.8517 36.9694 57.0289 37.04 57.19C37.16 57.47 37.3 57.7467 37.46 58.02Z" fill="#840007"/>
<path d="M70 55.69V56.99L66.63 62.83C66.4429 63.1539 66.159 63.411 65.8182 63.5653C65.4774 63.7195 65.0969 63.7632 64.73 63.69C64.4233 63.63 63.09 63.33 60.73 62.79C60.2591 62.6824 59.8488 62.3981 59.5884 61.9991C59.328 61.6001 59.2387 61.1188 59.34 60.66C59.6133 59.46 60.18 58.8567 61.04 58.85C61.3533 58.85 61.88 58.9333 62.62 59.1C63.0587 59.2014 63.518 59.156 63.9279 58.9707C64.3377 58.7854 64.6755 58.4703 64.8897 58.0736C65.1039 57.677 65.1828 57.2204 65.1142 56.7738C65.0456 56.3271 64.8334 55.9149 64.51 55.6C64.1367 55.24 63.88 54.9633 63.74 54.77C63.5968 54.5685 63.498 54.3385 63.4491 54.0931C63.4003 53.8477 63.4024 53.5919 63.4553 53.3402C63.5083 53.0884 63.611 52.8458 63.7577 52.6261C63.9043 52.4065 64.092 52.2141 64.31 52.06C65.1233 51.4867 65.8767 51.5267 66.57 52.18C67.7567 53.3 68.9 54.47 70 55.69Z" fill="#840007"/>
<path d="M54.85 70H47.37C46.0633 68.6934 45.27 66.9334 44.99 64.72C44.75 62.83 46.55 61.74 48.07 62.7C48.69 63.0867 49.1033 63.9 49.31 65.14C49.3369 65.2946 49.4082 65.4377 49.5149 65.5515C49.6216 65.6653 49.759 65.7448 49.91 65.78C50.4567 65.9133 51.2133 65.93 52.18 65.83C52.3334 65.8125 52.477 65.7454 52.5889 65.6389C52.7008 65.5325 52.7749 65.3924 52.8 65.24C52.8733 64.7867 53.0533 64.24 53.34 63.6C53.4558 63.3386 53.6243 63.1038 53.8351 62.9102C54.0458 62.7166 54.2944 62.5684 54.5653 62.4746C54.8362 62.3809 55.1237 62.3437 55.41 62.3652C55.6964 62.3868 55.9755 62.4667 56.23 62.6C56.6833 62.8333 56.9233 63.2333 56.95 63.8C57.0567 66.2534 56.3567 68.32 54.85 70Z" fill="#840007"/>
</g>
<defs>
<clipPath id="clip0_97_42">
<rect width="70" height="70" fill="white"/>
</clipPath>
</defs>
</svg>
