<svg width="70" height="70" viewBox="0 0 70 70" fill="none" xmlns="http://www.w3.org/2000/svg">
<g clip-path="url(#clip0_97_3)">
<circle cx="16.5" cy="58.5" r="6" stroke="#840007" stroke-width="4"/>
<circle cx="53.5" cy="58.5" r="6" stroke="#840007" stroke-width="4"/>
<path d="M24 58.5H48" stroke="#840007" stroke-width="4"/>
<path d="M59.5 58.5H70.5" stroke="#840007" stroke-width="4"/>
<path d="M10.5 58.5H-0.5" stroke="#840007" stroke-width="4"/>
<path d="M2 58.5V44.8727C2 44.7496 2.02333 44.626 2.06773 44.5112C4.64443 37.8496 6.49351 34.1 10.5 30" stroke="#840007" stroke-width="4"/>
<path d="M68 58.5C68.6798 45.6741 65.8246 43.2021 58.5807 42.0132C58.5278 42.0045 58.473 42 58.4194 42H54.9999M32.9999 30H10.9641C10.426 30 9.982 30.4291 9.97934 30.9671C9.94915 37.0594 11.9622 39.2587 16.7766 41.8792C16.9217 41.9582 17.0864 42 17.2517 42H32.9999M32.9999 30V42M32.9999 30C44.029 30.0735 48.9953 32.4182 54.9999 42M32.9999 42H54.9999M35.4999 50H40.9999" stroke="#840007" stroke-width="4"/>
<path d="M61.542 9.89746L61.7744 10.3691L62.2949 10.4443L66.8613 11.1074L63.5576 14.3291L63.1807 14.6963L63.2695 15.2139L64.0498 19.7617L59.9658 17.6152L59.5 17.3701L59.0342 17.6152L54.9492 19.7617L55.7305 15.2139L55.8193 14.6963L55.4424 14.3291L52.1377 11.1074L56.7051 10.4443L57.2256 10.3691L57.458 9.89746L59.5 5.75879L61.542 9.89746Z" stroke="#840007" stroke-width="2"/>
<path d="M36.542 9.89746L36.7744 10.3691L37.2949 10.4443L41.8613 11.1074L38.5576 14.3291L38.1807 14.6963L38.2695 15.2139L39.0498 19.7617L34.9658 17.6152L34.5 17.3701L34.0342 17.6152L29.9492 19.7617L30.7305 15.2139L30.8193 14.6963L30.4424 14.3291L27.1377 11.1074L31.7051 10.4443L32.2256 10.3691L32.458 9.89746L34.5 5.75879L36.542 9.89746Z" stroke="#840007" stroke-width="2"/>
<path d="M11.542 9.89746L11.7744 10.3691L12.2949 10.4443L16.8613 11.1074L13.5576 14.3291L13.1807 14.6963L13.2695 15.2139L14.0498 19.7617L9.96582 17.6152L9.5 17.3701L9.03418 17.6152L4.94922 19.7617L5.73047 15.2139L5.81934 14.6963L5.44238 14.3291L2.1377 11.1074L6.70508 10.4443L7.22559 10.3691L7.45801 9.89746L9.5 5.75879L11.542 9.89746Z" stroke="#840007" stroke-width="2"/>
</g>
<defs>
<clipPath id="clip0_97_3">
<rect width="70" height="70" fill="white"/>
</clipPath>
</defs>
</svg>
