<svg width="139" height="68" viewBox="0 0 139 68" fill="none" xmlns="http://www.w3.org/2000/svg">
<path d="M22.6226 38.8574C29.0844 38.8574 34.3237 45.3812 34.3237 53.4287C34.3237 61.4763 29.0845 68 22.6226 68C16.1609 67.9997 10.9224 61.4761 10.9224 53.4287C10.9224 45.3814 16.1609 38.8577 22.6226 38.8574ZM113.105 38.8574C119.567 38.8574 124.805 45.3812 124.805 53.4287C124.805 61.4763 119.567 68 113.105 68C106.643 67.9999 101.405 61.4762 101.405 53.4287C101.405 45.3813 106.643 38.8576 113.105 38.8574ZM60.8433 20.4004C60.8433 20.4004 60.3686 9.57627 60.064 3.88574C57.3033 3.6832 48.3102 3.67563 44.0005 5C38.069 7.18251 26.7898 17.5271 25.0005 20.4004H60.8433ZM97.5044 20.4004C97.799 19.2331 90.1043 11.5712 81.5005 7.5C74.041 3.97039 65.5259 3.88576 65.5239 3.88574L66.3042 20.4004H97.5044ZM105 20.4004C107.059 22.263 109.918 22.8525 113.885 23.3145C117.543 23.5169 127.859 26.2536 130.265 28.1719C133.16 29.2908 134.507 30.3867 136.505 33.0293C138.12 36.5369 138.94 39.4008 138.846 44.6855C139.362 49.5176 138.452 52.3081 138.066 57.3145C134.278 57.1105 132.223 56.9115 128.706 56.3428C128.202 50.376 127.545 47.3786 125.585 42.7432C123.796 38.9807 121.315 36.8737 115.445 34.9717C111.36 34.8094 110.68 34.9537 106.865 35.9434C102.784 37.697 100.952 39.7171 98.2847 44.6855C96.9127 49.0289 96.4734 51.5508 96.7251 56.3428H39.0034C38.5001 48.5621 38.0987 44.5492 35.8833 41.7715C32.5108 36.3655 29.9641 35.3086 24.1831 34C16.795 34.7035 14.648 36.9069 10.9224 40.8008C8.13504 45.8674 7.3721 47.7875 7.02197 56.3428C1.90585 56.6357 0.111762 56.1529 0.00244141 53.4287C-0.0350068 33.5548 0.408746 34.9327 0.781738 26.2285C2.92029 24.2667 9.36294 22.3432 21.8433 16.5146C30.03 9.75959 33.0065 6.77181 39.0034 3.88574C45.0001 0.999771 42.0003 2.00004 46.0005 1C49.9847 0.00395491 53.0191 1.21745e-05 53.0435 0H63.1841C66.3606 0.25464 76.5602 2.04005 79.0005 3C85.2621 5.63506 88.8205 7.11432 93.5005 11C98.9605 15.5333 101.104 16.3126 105 20.4004Z" fill="black"/>
</svg>
