<svg width="1000" height="1047" viewBox="0 0 1000 1047" fill="none" xmlns="http://www.w3.org/2000/svg">
<path d="M1000 638.066V1023.07H615L1000 638.066Z" fill="#454551"/>
<path d="M953.734 625.463L992.685 586.511L984.527 578.353L968.576 577.985L921.835 624.726L953.734 625.463ZM895.147 504.558L894.779 488.606L886.619 480.447L847.668 519.398L848.406 551.299L895.147 504.558ZM913.86 624.541L960.601 577.8L904.78 576.51L865.831 615.459L873.991 623.619L913.86 624.541ZM857.671 607.302L896.622 568.351L895.516 520.504L895.331 512.532L848.59 559.273L849.513 599.144L857.671 607.302ZM840.617 559.086L840.249 543.137L832.09 534.978L793.139 573.928L793.877 605.827L840.617 559.086ZM899.203 679.994L938.155 641.044L929.996 632.885L914.045 632.516L867.304 679.257L899.203 679.994ZM842.092 622.882L840.802 567.061L794.061 613.802L794.983 653.678L803.14 661.834L842.092 622.882ZM859.33 679.073L906.071 632.332L850.25 631.041L811.299 669.993L819.457 678.151L859.33 679.073ZM785.349 581.72L785.348 581.721L785.349 581.723V581.72ZM844.672 734.525L883.624 695.574L875.466 687.416L859.515 687.048L812.774 733.788L844.672 734.525ZM786.086 613.618L785.718 597.671L777.558 589.511L738.609 628.461L739.346 660.358L786.086 613.618ZM787.562 677.414L786.27 621.593L739.53 668.333L740.452 708.208L748.61 716.366L787.562 677.414ZM804.8 733.604L851.541 686.863L795.719 685.573L756.769 724.523L764.928 732.682L804.8 733.604ZM790.142 789.056L829.094 750.105L820.937 741.947L804.984 741.578L758.244 788.319L790.142 789.056ZM731.554 668.149L731.186 652.198L723.027 644.039L684.077 682.991L684.814 714.89L731.554 668.149ZM733.029 731.943L731.739 676.124L684.998 722.865L685.92 762.737L694.078 770.895L733.029 731.943ZM750.269 788.134L797.009 741.394L741.189 740.103L702.239 779.054L710.398 787.212L750.269 788.134ZM676.286 690.781L676.284 690.782L676.286 690.783V690.781ZM735.612 843.589L774.564 804.637L766.405 796.479L750.453 796.111L703.712 842.851L735.612 843.589ZM677.022 722.68L676.654 706.732L668.494 698.572L629.545 737.522L630.282 769.42L677.022 722.68ZM678.498 786.475L677.207 730.653L630.467 777.394L631.388 817.27L639.546 825.427L678.498 786.475ZM695.737 842.667L742.478 795.926L686.659 794.636L647.708 833.587L655.866 841.744L695.737 842.667ZM621.757 745.312L621.755 745.313L621.757 745.315V745.312ZM681.077 898.118L720.029 859.167L711.871 851.009L695.92 850.641L649.179 897.381L681.077 898.118ZM622.494 777.21L622.126 761.265L613.965 753.104L575.017 792.054L575.753 823.95L622.494 777.21ZM623.969 841.006L622.678 785.184L575.938 831.924L576.86 871.803L585.016 879.959L623.969 841.006ZM641.204 897.197L687.945 850.456L632.124 849.166L593.174 888.116L601.334 896.275L641.204 897.197ZM626.548 952.65L665.5 913.698L657.342 905.54L641.389 905.172L594.648 951.913L626.548 952.65ZM567.961 831.743L567.593 815.792L559.434 807.633L520.482 846.585L521.22 878.484L567.961 831.743ZM569.436 895.538L568.145 839.718L521.404 886.459L522.327 926.333L530.484 934.49L569.436 895.538ZM586.673 951.729L633.414 904.988L577.594 903.697L538.643 942.648L546.801 950.806L586.673 951.729ZM512.694 854.374L512.693 854.375L512.694 854.376V854.374ZM572.016 1007.18L610.968 968.229L602.81 960.071L586.859 959.702L540.118 1006.44L572.016 1007.18ZM513.431 886.274L513.063 870.325L504.903 862.165L465.953 901.116L466.69 933.015L513.431 886.274ZM514.906 950.069L513.615 894.248L466.874 940.989L467.797 980.863L475.954 989.02L514.906 950.069ZM532.143 1006.26L578.884 959.518L523.063 958.227L484.113 997.177L492.272 1005.34L532.143 1006.26Z" fill="black"/>
<path d="M1000 314.066L633 680.066L291 1023.07H0V732.066L356 382.566L709 23.0654H1000V314.066ZM374.049 834.527C370.938 834.116 367.576 835.729 363.963 839.364L349.353 854.065C344.577 858.871 341.639 863.534 340.539 868.055C339.439 872.512 340.571 876.433 343.933 879.815C346.289 882.187 348.284 882.55 349.918 880.906C350.955 879.863 351.348 878.93 351.097 878.108C350.877 877.255 350.279 876.307 349.306 875.264C348.017 873.967 347.342 872.528 347.279 870.947C347.217 869.367 347.813 867.565 349.069 865.542C350.326 863.455 352.29 861.068 354.961 858.381L368.252 845.008C370.231 843.016 371.991 842.067 373.53 842.162C375.07 842.194 376.846 843.221 378.856 845.244L384.323 850.745L370.467 864.688C367.859 867.312 365.472 870.031 363.304 872.845C361.167 875.627 359.595 878.535 358.59 881.57C357.616 884.574 357.553 887.672 358.401 890.865C359.25 894.058 361.402 897.394 364.858 900.871C369.194 905.234 373.326 907.527 377.254 907.748C381.213 907.938 384.685 906.531 387.67 903.527L396.437 894.707C400.238 890.882 402.909 886.96 404.448 882.945C405.787 879.455 406.209 875.809 405.719 872.008C407.062 873.321 408.193 874.422 409.114 875.311C410.622 876.702 411.832 877.54 412.743 877.824C413.654 878.109 414.519 877.84 415.336 877.018C417.001 875.342 416.749 873.414 414.581 871.232L385.407 841.878C380.914 837.357 377.128 834.907 374.049 834.527ZM389.185 855.623C394.926 861.5 398.192 867.129 398.981 872.513C399.83 878.235 397.363 884.005 391.582 889.822L382.909 898.548C381.527 899.939 379.657 900.524 377.301 900.303C374.976 900.05 372.336 898.438 369.383 895.466C366.524 892.589 364.968 889.853 364.717 887.261C364.497 884.637 365.346 881.918 367.263 879.104C369.148 876.259 371.834 873.081 375.321 869.572L389.185 855.623ZM160.219 610.256L326.296 863.36L354.142 835.514L322.646 788.562L362.469 748.74L409.534 780.121L437.381 752.275L187.466 583.009L160.219 610.256ZM447.229 779.675C443.207 775.628 438.776 774.047 433.938 774.933C429.13 775.786 424.574 778.379 420.27 782.71L391.708 811.448L435.445 855.457L464.007 826.719C466.866 823.842 468.987 820.823 470.369 817.661C471.752 814.5 472.176 811.354 471.642 808.224C471.107 805.031 469.411 801.995 466.552 799.118C462.216 794.756 456.969 793.302 450.811 794.756C451.785 792.132 452.099 789.634 451.753 787.263C451.407 784.892 449.899 782.362 447.229 779.675ZM453.638 801.205C456.811 800.984 459.954 802.438 463.064 805.568C467.086 809.615 465.531 815.227 458.398 822.403L435.445 845.498L420.27 830.228L443.599 806.754C447.118 803.213 450.464 801.363 453.638 801.205ZM424.559 788.354C431.754 781.114 437.347 779.502 441.337 783.517C444.416 786.615 445.641 789.523 445.013 792.242C444.416 794.93 442.295 798.107 438.65 801.774L415.32 825.249L401.605 811.448L424.559 788.354ZM489.658 717.821C488.024 716.177 486.171 716.399 484.098 718.485L450.305 752.487C448.2 754.606 447.964 756.487 449.598 758.131C451.263 759.806 453.148 759.585 455.253 757.467L469.581 743.05L506.061 779.755C508.04 781.746 509.893 781.873 511.621 780.135C512.438 779.313 512.799 778.412 512.705 777.432C512.674 776.452 512.187 775.487 511.244 774.539L474.766 737.833L489.046 723.464C491.119 721.377 491.323 719.497 489.658 717.821ZM330.303 725.814L300.66 755.457L241.837 665.171L330.303 725.814ZM547.592 667.686C543.727 666.706 539.784 667.291 535.762 669.44C531.74 671.527 527.326 674.989 522.519 679.826L519.784 682.576C514.945 687.445 511.49 691.903 509.416 695.95C507.311 699.965 506.729 703.932 507.672 707.853C508.646 711.741 511.317 715.883 515.685 720.277L526.006 730.663C530.405 735.089 534.537 737.792 538.401 738.772C542.297 739.721 546.257 739.152 550.278 737.065C554.269 734.947 558.683 731.454 563.521 726.585L566.255 723.835C571.062 718.998 574.519 714.571 576.624 710.556C578.729 706.477 579.295 702.494 578.321 698.605C577.347 694.717 574.66 690.56 570.262 686.134L559.939 675.748C555.572 671.354 551.456 668.666 547.592 667.686ZM358.454 423.194C350.096 423.169 343.023 426.05 337.234 431.839L247.408 521.665L455.703 732.551L483.55 704.704L382.08 601.973L444.06 539.993C449.848 534.204 452.756 527.105 452.782 518.695C453.008 510.086 450.145 502.768 444.193 496.743L380.217 431.972C374.266 425.946 367.011 423.021 358.454 423.194ZM537.694 676.127C540.491 674.325 543.224 673.788 545.895 674.515C548.534 675.21 551.597 677.313 555.085 680.822L565.266 691.065C568.565 694.385 570.622 697.373 571.439 700.028C572.225 702.652 571.77 705.419 570.073 708.327C568.345 711.204 565.423 714.714 561.307 718.855L558.573 721.605C554.457 725.747 550.953 728.703 548.062 730.474C545.172 732.181 542.423 732.639 539.815 731.849C537.208 731.058 534.238 728.988 530.907 725.637L520.728 715.394C517.271 711.916 515.165 708.849 514.411 706.193C513.657 703.538 514.176 700.803 515.967 697.989C517.758 695.112 520.68 691.634 524.733 687.556L527.467 684.806C531.457 680.791 534.867 677.897 537.694 676.127ZM608.802 598.227C606.634 596.045 604.717 595.792 603.052 597.468C601.418 599.112 601.686 601.024 603.854 603.205L640.05 639.626L624.638 655.134L588.441 618.713C586.273 616.531 584.372 616.262 582.738 617.906C581.073 619.582 581.325 621.511 583.493 623.692L619.689 660.113L604.324 675.572L568.128 639.152C565.96 636.971 564.043 636.718 562.378 638.394C560.744 640.037 561.012 641.951 563.18 644.132L604.324 685.531L649.947 639.626L608.802 598.227ZM668.784 536.07C667.999 535.28 667.071 535.012 666.003 535.265C664.903 535.486 663.756 536.197 662.562 537.398C659.986 539.991 658.274 543.105 657.426 546.74C656.483 550.534 656.341 554.186 657.001 557.695C657.661 561.204 658.321 564.366 658.98 567.18C659.797 570.594 660.316 573.519 660.536 575.953C660.725 578.356 660.253 580.127 659.122 581.265L649.036 591.413L632.116 574.389C631.111 573.377 630.137 572.839 629.194 572.775C628.252 572.649 627.387 572.981 626.602 573.771C625.785 574.593 625.423 575.495 625.518 576.475C625.612 577.391 626.163 578.356 627.168 579.367L666.145 618.586C667.119 619.566 668.061 620.103 668.973 620.198C669.947 620.293 670.826 619.945 671.611 619.155C672.397 618.365 672.743 617.48 672.648 616.5C672.586 615.552 672.083 614.603 671.141 613.654L653.985 596.393L659.217 591.129C664.024 586.292 668.548 583.414 672.79 582.497C675.618 581.738 678.242 581.533 680.661 581.881C683.08 582.165 685.279 582.671 687.259 583.398C689.207 584.094 690.951 584.679 692.49 585.153C695.255 586.102 697.958 586.481 700.597 586.291C703.267 586.07 705.703 584.853 707.902 582.64C710.29 580.237 710.636 578.182 708.939 576.475C708.028 575.558 707.07 575.29 706.064 575.669C705.059 575.985 704.069 576.602 703.095 577.519C701.618 578.751 699.937 579.178 698.052 578.799C696.198 578.388 693.575 577.455 690.182 576.001C687.165 574.673 683.834 573.914 680.189 573.725C676.545 573.472 672.476 574.309 667.982 576.237C667.951 574.688 667.857 573.234 667.7 571.875C667.575 570.484 667.307 568.856 666.898 566.99C666.459 565.093 665.878 562.612 665.155 559.545C664.433 556.099 664.18 552.906 664.4 549.966C664.62 546.962 665.768 544.322 667.842 542.046C668.564 541.319 669.161 540.401 669.632 539.295C670.103 538.188 669.821 537.114 668.784 536.07ZM347.841 476.923C350.835 473.929 354.421 472.539 358.6 472.752C362.779 472.565 366.258 473.877 369.035 476.688L399.387 507.418C402.362 510.431 403.843 514.139 403.829 518.544C403.817 522.549 402.314 526.048 399.319 529.042L354.406 573.955L302.928 521.837L347.841 476.923ZM506.833 274.497C498.476 274.071 491.204 276.952 485.016 283.14L417.047 351.108C411.458 356.698 408.65 363.897 408.623 372.707C408.397 381.316 411.161 388.533 416.914 394.357L582.359 561.861C588.311 567.887 595.566 570.812 604.123 570.639C612.68 570.465 619.754 567.583 625.343 561.994L693.312 494.025C699.499 487.837 702.507 480.638 702.333 472.429C702.359 464.019 699.397 456.801 693.445 450.775L648.215 404.983L626.915 439.457L648.638 461.45C651.812 464.664 653.392 468.273 653.38 472.277C653.567 476.082 652.064 479.582 648.87 482.775L614.736 516.909C611.942 519.704 608.455 521.194 604.275 521.382C600.096 521.569 596.419 520.056 593.245 516.843L461.721 383.684C458.944 380.872 457.562 377.263 457.575 372.858C457.589 368.453 458.993 364.853 461.788 362.059L495.922 327.925C499.116 324.731 502.702 323.34 506.681 323.753C510.859 323.966 514.337 325.479 517.114 328.291L545.085 356.609L566.683 322.437L527.999 283.272C522.246 277.448 515.191 274.523 506.833 274.497ZM729.269 484.886C725.404 483.906 721.46 484.491 717.438 486.641C713.417 488.727 709.002 492.189 704.195 497.025L701.462 499.776C696.623 504.645 693.167 509.103 691.093 513.149C688.988 517.165 688.406 521.132 689.349 525.053C690.323 528.941 692.994 533.083 697.361 537.478L707.683 547.863C712.081 552.289 716.213 554.993 720.078 555.973C723.974 556.921 727.933 556.352 731.955 554.266C735.945 552.147 740.36 548.654 745.199 543.785L747.933 541.034C752.74 536.197 756.196 531.771 758.301 527.756C760.406 523.678 760.972 519.694 759.998 515.806C759.024 511.917 756.337 507.759 751.938 503.333L741.617 492.947C737.25 488.553 733.133 485.866 729.269 484.886ZM719.371 493.327C722.168 491.525 724.902 490.988 727.572 491.715C730.211 492.41 733.275 494.512 736.763 498.021L746.942 508.265C750.241 511.584 752.3 514.572 753.117 517.228C753.903 519.852 753.447 522.619 751.75 525.527C750.022 528.404 747.099 531.913 742.983 536.055L740.25 538.806C736.134 542.947 732.631 545.903 729.74 547.674C726.85 549.381 724.1 549.839 721.492 549.049C718.884 548.258 715.915 546.187 712.584 542.836L702.404 532.593C698.948 529.115 696.843 526.048 696.089 523.393C695.335 520.737 695.853 518.002 697.644 515.188C699.435 512.312 702.357 508.834 706.41 504.756L709.144 502.005C713.134 497.99 716.543 495.098 719.371 493.327ZM756.071 444.828C753.558 447.357 751.94 449.712 751.217 451.894C750.526 454.043 750.761 456.305 751.924 458.676C753.118 461.015 755.223 463.702 758.239 466.737L779.589 488.22C781.6 490.243 782.621 492.061 782.652 493.674C782.684 495.286 781.725 497.072 779.777 499.032C777.421 501.403 777.06 503.411 778.693 505.055C779.573 505.94 780.532 506.272 781.568 506.051C782.574 505.798 783.642 505.102 784.773 503.964C787.098 501.624 788.685 499.364 789.533 497.183C790.382 495.001 790.303 492.678 789.298 490.212C788.261 487.714 786.156 484.869 782.982 481.676L761.727 460.288C759.653 458.201 758.6 456.352 758.568 454.739C758.537 453.127 759.575 451.262 761.68 449.144L781.427 429.273L817.529 465.599C819.76 467.843 821.692 468.144 823.326 466.5C824.991 464.824 824.693 462.849 822.431 460.572L781.427 419.314L756.071 444.828ZM838.785 366.912C835.675 366.501 832.312 368.113 828.699 371.749L814.089 386.45C809.313 391.256 806.375 395.919 805.275 400.44C804.176 404.898 805.307 408.818 808.669 412.201C811.025 414.572 813.021 414.936 814.654 413.292C815.691 412.249 816.083 411.316 815.832 410.494C815.612 409.641 815.015 408.692 814.041 407.648C812.753 406.352 812.078 404.914 812.015 403.333C811.952 401.752 812.549 399.95 813.806 397.927C815.062 395.84 817.027 393.453 819.697 390.766L832.988 377.393C834.968 375.401 836.727 374.452 838.267 374.547C839.806 374.578 841.582 375.607 843.593 377.63L849.059 383.131L835.203 397.073C832.595 399.697 830.207 402.416 828.039 405.229C825.902 408.012 824.332 410.921 823.326 413.956C822.352 416.959 822.289 420.058 823.138 423.251C823.986 426.444 826.139 429.779 829.595 433.257C833.931 437.62 838.063 439.911 841.99 440.133C845.949 440.322 849.421 438.915 852.406 435.912L861.172 427.092C864.974 423.266 867.645 419.346 869.185 415.331C870.523 411.84 870.945 408.195 870.455 404.394C871.798 405.706 872.93 406.808 873.851 407.696C875.359 409.087 876.568 409.924 877.479 410.209C878.391 410.493 879.254 410.225 880.071 409.403C881.737 407.728 881.485 405.799 879.317 403.617L850.144 374.263C845.651 369.742 841.864 367.292 838.785 366.912ZM636.245 143.681C628.087 143.455 620.814 146.536 614.427 152.924L546.458 220.893C540.869 226.482 538.061 233.481 538.035 241.891C538.009 250.3 541.071 257.619 547.221 263.845L712.071 430.745C718.221 436.971 725.475 440.097 733.833 440.123C742.191 440.149 749.164 437.367 754.753 431.778L822.722 363.81C829.109 357.422 832.217 350.123 832.043 341.913C832.069 333.504 829.007 326.186 822.857 319.96L658.006 153.059C651.856 146.833 644.603 143.706 636.245 143.681ZM853.92 388.008C859.661 393.885 862.927 399.515 863.717 404.898C864.565 410.621 862.099 416.39 856.317 422.207L847.646 430.933C846.263 432.324 844.394 432.909 842.037 432.688C839.712 432.435 837.073 430.822 834.119 427.851C831.26 424.974 829.705 422.239 829.453 419.646C829.233 417.022 830.081 414.303 831.998 411.489C833.883 408.644 836.57 405.467 840.058 401.958L853.92 388.008ZM624.735 197.707C628.129 194.314 631.915 192.723 636.093 192.937C640.272 192.749 644.049 194.363 647.421 197.777L778.35 330.334C781.524 333.547 783.103 337.357 783.09 341.762C783.276 345.967 781.672 349.767 778.278 353.16L744.444 386.995C741.65 389.79 738.063 391.18 733.686 391.166C729.507 390.953 725.831 389.24 722.657 386.026L591.729 253.47C588.356 250.056 586.676 246.346 586.688 242.342C586.702 237.937 588.106 234.337 590.9 231.542L624.735 197.707Z" fill="#840007"/>
<path d="M880.071 409.403C879.255 410.225 878.39 410.494 877.479 410.209C876.568 409.925 875.358 409.087 873.85 407.696C872.342 406.241 870.268 404.218 867.629 401.626L870.174 402.669C871.054 407.095 870.724 411.316 869.184 415.331C867.645 419.346 864.974 423.266 861.172 427.092L852.406 435.912C849.421 438.916 845.949 440.323 841.99 440.133C838.062 439.912 833.931 437.62 829.595 433.257C826.138 429.779 823.986 426.444 823.138 423.25C822.289 420.057 822.352 416.959 823.326 413.956C824.332 410.921 825.903 408.012 828.039 405.23C830.207 402.416 832.595 399.697 835.203 397.073L851.275 380.902L851.227 385.312L843.592 377.63C841.581 375.606 839.806 374.579 838.267 374.547C836.727 374.452 834.967 375.401 832.988 377.393L819.697 390.766C817.026 393.453 815.063 395.84 813.806 397.927C812.549 399.95 811.952 401.752 812.015 403.333C812.078 404.914 812.753 406.352 814.041 407.648C815.015 408.692 815.612 409.64 815.832 410.494C816.084 411.316 815.691 412.248 814.654 413.292C813.02 414.936 811.025 414.572 808.668 412.201C805.306 408.818 804.175 404.898 805.275 400.44C806.375 395.919 809.313 391.256 814.089 386.45L828.699 371.749C832.312 368.114 835.674 366.501 838.785 366.912C841.864 367.292 845.65 369.742 850.143 374.263L879.317 403.617C881.485 405.799 881.737 407.727 880.071 409.403ZM847.646 430.933L856.318 422.207C862.099 416.39 864.565 410.62 863.717 404.898C862.869 399.112 859.161 393.042 852.594 386.687L855.375 386.545L840.058 401.958C836.57 405.467 833.883 408.644 831.998 411.49C830.082 414.303 829.233 417.022 829.453 419.646C829.704 422.239 831.26 424.974 834.119 427.851C837.073 430.822 839.712 432.435 842.037 432.688C844.394 432.909 846.263 432.324 847.646 430.933Z" fill="white"/>
<path d="M823.326 466.5C821.692 468.144 819.76 467.844 817.529 465.599L781.427 429.273L761.679 449.143C759.574 451.262 758.537 453.127 758.569 454.739C758.6 456.352 759.653 458.201 761.727 460.288L782.982 481.675C786.156 484.868 788.261 487.714 789.298 490.211C790.303 492.677 790.382 495.001 789.534 497.183C788.685 499.364 787.099 501.625 784.773 503.964C783.642 505.102 782.574 505.798 781.569 506.051C780.532 506.272 779.573 505.94 778.694 505.055C777.06 503.411 777.421 501.403 779.778 499.032C781.726 497.072 782.684 495.286 782.653 493.673C782.621 492.061 781.6 490.243 779.589 488.22L758.239 466.737C755.222 463.702 753.117 461.015 751.923 458.675C750.761 456.304 750.525 454.044 751.216 451.894C751.939 449.712 753.557 447.357 756.071 444.828L781.427 419.314L822.431 460.572C824.693 462.848 824.992 464.824 823.326 466.5Z" fill="white"/>
<path d="M745.199 543.785C740.36 548.653 735.946 552.147 731.955 554.265C727.933 556.352 723.974 556.921 720.078 555.972C716.214 554.992 712.082 552.289 707.683 547.863L697.361 537.477C692.994 533.083 690.323 528.941 689.349 525.053C688.406 521.132 688.988 517.165 691.093 513.149C693.167 509.103 696.623 504.645 701.462 499.776L704.195 497.026C709.003 492.189 713.417 488.727 717.439 486.64C721.461 484.49 725.404 483.905 729.269 484.885C733.133 485.866 737.25 488.553 741.617 492.947L751.939 503.333C756.337 507.759 759.024 511.916 759.998 515.805C760.972 519.694 760.406 523.677 758.301 527.756C756.196 531.771 752.74 536.197 747.932 541.034L745.199 543.785ZM740.25 538.805L742.984 536.055C747.1 531.913 750.022 528.404 751.75 525.527C753.447 522.618 753.902 519.852 753.117 517.228C752.3 514.572 750.242 511.585 746.943 508.265L736.763 498.022C733.275 494.512 730.211 492.41 727.572 491.714C724.901 490.987 722.168 491.525 719.371 493.327C716.543 495.097 713.134 497.99 709.144 502.005L706.41 504.756C702.357 508.834 699.435 512.312 697.644 515.189C695.853 518.002 695.335 520.737 696.089 523.393C696.843 526.048 698.948 529.115 702.404 532.593L712.584 542.836C715.915 546.187 718.884 548.258 721.492 549.049C724.1 549.839 726.849 549.381 729.74 547.673C732.631 545.903 736.134 542.947 740.25 538.805Z" fill="white"/>
<path d="M671.612 619.155C670.826 619.946 669.946 620.293 668.972 620.199C668.061 620.104 667.119 619.566 666.145 618.586L627.168 579.368C626.162 578.356 625.612 577.392 625.518 576.475C625.424 575.495 625.785 574.594 626.602 573.772C627.387 572.981 628.252 572.649 629.194 572.776C630.137 572.839 631.111 573.376 632.116 574.388L649.036 591.413L659.122 581.264C660.253 580.126 660.725 578.356 660.536 575.953C660.316 573.519 659.798 570.594 658.981 567.18C658.321 564.366 657.661 561.205 657.001 557.695C656.341 554.186 656.483 550.534 657.425 546.741C658.274 543.105 659.986 539.991 662.563 537.398C663.757 536.197 664.904 535.486 666.003 535.264C667.072 535.011 667.998 535.28 668.784 536.07C669.821 537.114 670.104 538.189 669.632 539.295C669.161 540.402 668.564 541.319 667.841 542.046C665.768 544.322 664.621 546.962 664.401 549.965C664.181 552.906 664.432 556.099 665.155 559.545C665.878 562.611 666.459 565.093 666.899 566.99C667.307 568.855 667.574 570.484 667.7 571.875C667.857 573.234 667.951 574.688 667.983 576.238C672.476 574.309 676.545 573.471 680.19 573.724C683.834 573.914 687.165 574.673 690.181 576.001C693.575 577.455 696.198 578.387 698.052 578.798C699.937 579.178 701.618 578.751 703.095 577.518C704.069 576.601 705.059 575.985 706.064 575.669C707.07 575.289 708.028 575.558 708.939 576.475C710.636 578.182 710.29 580.237 707.902 582.64C705.703 584.853 703.268 586.07 700.597 586.291C697.958 586.481 695.256 586.102 692.491 585.153C690.951 584.679 689.207 584.094 687.259 583.398C685.28 582.671 683.08 582.165 680.661 581.881C678.241 581.533 675.618 581.739 672.79 582.497C668.548 583.414 664.024 586.291 659.216 591.128L653.985 596.392L671.14 613.654C672.083 614.603 672.586 615.551 672.649 616.5C672.743 617.48 672.397 618.365 671.612 619.155Z" fill="white"/>
<path d="M604.325 685.531L563.18 644.131C561.011 641.95 560.744 640.037 562.378 638.393C564.044 636.718 565.96 636.97 568.128 639.152L604.325 675.573L619.689 660.113L583.493 623.692C581.325 621.511 581.073 619.582 582.739 617.906C584.373 616.262 586.274 616.531 588.442 618.713L624.638 655.133L640.05 639.626L603.853 603.205C601.685 601.024 601.418 599.111 603.052 597.467C604.717 595.792 606.634 596.045 608.802 598.226L649.947 639.626L604.325 685.531Z" fill="white"/>
<path d="M563.522 726.585C558.683 731.454 554.268 734.947 550.278 737.065C546.256 739.152 542.297 739.721 538.401 738.773C534.536 737.792 530.405 735.089 526.006 730.663L515.684 720.278C511.317 715.883 508.646 711.742 507.672 707.853C506.729 703.933 507.311 699.965 509.416 695.95C511.49 691.903 514.946 687.445 519.785 682.577L522.518 679.826C527.325 674.989 531.74 671.527 535.762 669.44C539.784 667.291 543.727 666.706 547.592 667.686C551.456 668.666 555.572 671.353 559.94 675.748L570.261 686.133C574.66 690.559 577.347 694.717 578.321 698.605C579.295 702.494 578.729 706.478 576.624 710.556C574.519 714.571 571.063 718.997 566.255 723.834L563.522 726.585ZM558.573 721.606L561.307 718.855C565.423 714.713 568.345 711.204 570.073 708.327C571.77 705.419 572.225 702.652 571.44 700.028C570.623 697.372 568.565 694.385 565.266 691.065L555.085 680.822C551.598 677.313 548.534 675.21 545.895 674.515C543.224 673.787 540.491 674.325 537.694 676.127C534.866 677.897 531.457 680.79 527.467 684.805L524.733 687.556C520.68 691.634 517.758 695.112 515.967 697.989C514.176 700.803 513.658 703.537 514.412 706.193C515.166 708.849 517.271 711.915 520.727 715.393L530.907 725.636C534.238 728.988 537.207 731.058 539.815 731.849C542.423 732.639 545.172 732.181 548.063 730.474C550.954 728.703 554.457 725.747 558.573 721.606Z" fill="white"/>
<path d="M511.622 780.134C509.893 781.873 508.04 781.747 506.06 779.755L469.581 743.05L455.253 757.466C453.148 759.585 451.263 759.806 449.598 758.13C447.964 756.486 448.199 754.605 450.304 752.487L484.097 718.485C486.171 716.398 488.025 716.177 489.659 717.821C491.324 719.496 491.12 721.378 489.046 723.464L474.765 737.833L511.244 774.539C512.187 775.487 512.674 776.451 512.706 777.431C512.8 778.411 512.438 779.312 511.622 780.134Z" fill="white"/>
<path d="M435.445 855.457L391.708 811.448L420.269 782.71C424.574 778.379 429.13 775.787 433.937 774.933C438.776 774.048 443.206 775.628 447.228 779.675C449.899 782.362 451.407 784.892 451.753 787.263C452.098 789.634 451.784 792.132 450.81 794.756C456.968 793.301 462.216 794.756 466.552 799.119C469.411 801.996 471.108 805.031 471.642 808.224C472.176 811.354 471.752 814.499 470.369 817.661C468.987 820.822 466.866 823.842 464.007 826.719L435.445 855.457ZM435.445 845.498L458.398 822.403C465.531 815.227 467.086 809.615 463.064 805.568C459.953 802.438 456.811 800.984 453.638 801.205C450.464 801.363 447.118 803.213 443.599 806.754L420.269 830.228L435.445 845.498ZM415.321 825.249L438.65 801.774C442.295 798.107 444.416 794.93 445.013 792.242C445.641 789.523 444.416 786.615 441.337 783.516C437.346 779.501 431.754 781.114 424.558 788.354L401.606 811.448L415.321 825.249Z" fill="white"/>
<path d="M415.336 877.018C414.519 877.84 413.655 878.108 412.743 877.824C411.832 877.539 410.622 876.702 409.114 875.311C407.606 873.856 405.532 871.833 402.893 869.24L405.438 870.284C406.318 874.71 405.988 878.93 404.448 882.946C402.909 886.961 400.238 890.881 396.436 894.706L387.67 903.527C384.685 906.531 381.213 907.937 377.254 907.748C373.326 907.526 369.195 905.234 364.859 900.871C361.402 897.394 359.25 894.058 358.402 890.865C357.553 887.672 357.616 884.574 358.59 881.57C359.596 878.535 361.167 875.627 363.303 872.845C365.471 870.031 367.859 867.312 370.467 864.688L386.539 848.517L386.492 852.927L378.856 845.244C376.845 843.221 375.07 842.194 373.531 842.162C371.991 842.067 370.231 843.016 368.252 845.007L354.961 858.381C352.29 861.068 350.327 863.455 349.07 865.541C347.813 867.565 347.216 869.367 347.279 870.948C347.342 872.528 348.017 873.967 349.305 875.263C350.279 876.306 350.876 877.255 351.096 878.108C351.348 878.93 350.955 879.863 349.918 880.906C348.284 882.55 346.289 882.187 343.933 879.816C340.571 876.433 339.439 872.513 340.539 868.055C341.639 863.534 344.577 858.871 349.353 854.065L363.963 839.364C367.576 835.728 370.938 834.116 374.049 834.527C377.128 834.906 380.914 837.356 385.408 841.877L414.581 871.232C416.749 873.414 417.001 875.342 415.336 877.018ZM382.91 898.548L391.582 889.822C397.363 884.005 399.83 878.235 398.981 872.513C398.133 866.727 394.425 860.657 387.858 854.302L390.639 854.16L375.322 869.572C371.834 873.082 369.147 876.259 367.262 879.104C365.346 881.918 364.497 884.637 364.717 887.261C364.969 889.854 366.524 892.588 369.383 895.465C372.337 898.437 374.976 900.049 377.301 900.302C379.658 900.524 381.527 899.939 382.91 898.548Z" fill="white"/>
<path d="M754.753 431.778C749.164 437.367 742.191 440.149 733.833 440.123C725.475 440.097 718.221 436.971 712.072 430.745L547.221 263.844C541.071 257.618 538.009 250.3 538.035 241.891C538.061 233.481 540.869 226.482 546.458 220.892L614.426 152.924C620.814 146.536 628.087 143.455 636.245 143.68C644.603 143.706 651.857 146.832 658.006 153.058L822.857 319.959C829.007 326.186 832.069 333.503 832.043 341.913C832.216 350.123 829.109 357.422 822.722 363.81L754.753 431.778ZM744.444 386.995L778.279 353.16C781.672 349.767 783.276 345.967 783.09 341.762C783.104 337.357 781.523 333.548 778.349 330.334L647.421 197.777C644.048 194.363 640.272 192.749 636.093 192.937C631.915 192.724 628.129 194.314 624.735 197.707L590.901 231.542C588.106 234.336 586.702 237.936 586.688 242.341C586.676 246.346 588.356 250.055 591.728 253.47L722.657 386.026C725.831 389.24 729.507 390.953 733.685 391.166C738.063 391.18 741.65 389.789 744.444 386.995Z" fill="white"/>
<path d="M625.343 561.994C619.754 567.583 612.68 570.464 604.123 570.638C595.565 570.812 588.311 567.886 582.36 561.861L416.914 394.357C411.161 388.533 408.397 381.316 408.623 372.707C408.65 363.897 411.458 356.697 417.047 351.108L485.016 283.139C491.204 276.951 498.476 274.07 506.833 274.497C515.191 274.523 522.246 277.448 527.999 283.272L566.682 322.437L545.085 356.609L517.114 328.29C514.337 325.479 510.859 323.966 506.681 323.753C502.702 323.34 499.116 324.731 495.922 327.925L461.788 362.059C458.993 364.853 457.589 368.453 457.576 372.858C457.562 377.263 458.944 380.872 461.721 383.683L593.245 516.843C596.419 520.056 600.096 521.569 604.275 521.382C608.455 521.195 611.942 519.704 614.736 516.909L648.87 482.775C652.064 479.581 653.567 476.082 653.38 472.277C653.392 468.272 651.812 464.663 648.638 461.45L626.915 439.457L648.215 404.983L693.445 450.776C699.396 456.801 702.359 464.019 702.333 472.428C702.507 480.638 699.499 487.837 693.311 494.025L625.343 561.994Z" fill="white"/>
<path d="M455.703 732.551L247.408 521.665L337.234 431.839C343.023 426.05 350.096 423.168 358.454 423.194C367.012 423.02 374.266 425.946 380.217 431.971L444.194 496.743C450.145 502.769 453.008 510.086 452.782 518.695C452.756 527.105 449.849 534.204 444.06 539.993L382.08 601.973L483.55 704.704L455.703 732.551ZM354.406 573.955L399.32 529.042C402.314 526.048 403.817 522.549 403.829 518.544C403.843 514.139 402.362 510.43 399.386 507.417L369.035 476.688C366.257 473.877 362.779 472.564 358.6 472.752C354.421 472.538 350.835 473.929 347.841 476.923L302.928 521.836L354.406 573.955Z" fill="white"/>
<path d="M326.295 863.36L160.218 610.256L187.466 583.009L437.381 752.275L409.534 780.121L362.469 748.74L322.646 788.563L354.142 835.514L326.295 863.36ZM300.66 755.457L330.302 725.814L241.837 665.171L300.66 755.457Z" fill="white"/>
<path d="M104.853 541.575L105.222 557.527L113.381 565.685L152.332 526.734L151.594 494.834L104.853 541.575ZM46.2676 420.669L7.31597 459.621L15.4746 467.779L31.4239 468.147L78.1647 421.407L46.2676 420.669ZM86.139 421.59L39.3975 468.332L95.2202 469.622L134.17 430.672L126.01 422.513L86.139 421.59ZM142.33 438.829L103.378 477.781L104.669 533.6L151.41 486.859L150.488 446.987L142.33 438.829ZM100.798 366.139L61.8461 405.091L70.0047 413.249L85.9554 413.617L132.696 366.876L100.798 366.139ZM159.384 487.045L159.753 502.995L167.911 511.153L206.862 472.202L206.125 440.304L159.384 487.045ZM140.671 367.061L93.9303 413.802L149.75 415.092L188.701 376.141L180.543 367.983L140.671 367.061ZM157.909 423.249L159.2 479.07L205.94 432.33L205.019 392.455L196.861 384.297L157.909 423.249ZM155.329 311.607L116.378 350.559L124.536 358.718L140.487 359.086L187.228 312.345L155.329 311.607ZM213.914 432.514L214.282 448.462L222.441 456.622L261.392 417.671L260.654 385.774L213.914 432.514ZM212.438 368.718L213.73 424.539L260.47 377.799L259.547 337.924L251.39 329.766L212.438 368.718ZM195.201 312.529L148.46 359.27L204.282 360.561L243.232 321.61L235.073 313.451L195.201 312.529ZM268.445 377.982L268.814 393.934L276.972 402.092L315.922 363.141L315.186 331.241L268.445 377.982ZM209.859 257.076L170.908 296.028L179.066 304.186L195.016 304.554L241.756 257.814L209.859 257.076ZM266.97 314.188L268.26 370.009L315.001 323.268L314.079 283.396L305.921 275.237L266.97 314.188ZM249.731 257.998L202.991 304.739L258.813 306.029L297.761 267.079L289.602 258.92L249.731 257.998ZM323.714 355.35L323.716 355.349L323.714 355.347V355.35ZM264.39 202.545L225.438 241.496L233.597 249.654L249.548 250.023L296.289 203.282L264.39 202.545ZM322.978 323.452L323.346 339.399L331.506 347.559L370.455 308.609L369.718 276.712L322.978 323.452ZM321.502 259.656L322.793 315.479L369.533 268.738L368.612 228.861L360.454 220.704L321.502 259.656ZM304.263 203.466L257.522 250.207L313.343 251.498L352.293 212.548L344.134 204.388L304.263 203.466ZM377.508 268.922L377.876 284.869L386.036 293.029L424.985 254.078L424.248 222.182L377.508 268.922ZM318.924 148.014L279.972 186.965L288.131 195.123L304.08 195.491L350.82 148.751L318.924 148.014ZM376.032 205.126L377.323 260.949L424.064 214.208L423.142 174.332L414.984 166.174L376.032 205.126ZM358.795 148.936L312.055 195.676L367.876 196.967L406.826 158.017L398.667 149.858L358.795 148.936ZM432.039 214.391L432.408 230.341L440.567 238.499L479.517 199.548L478.78 167.65L432.039 214.391ZM373.452 93.483L334.501 132.433L342.659 140.592L358.611 140.961L405.351 94.2198L373.452 93.483ZM430.564 150.595L431.855 206.416L478.596 159.675L477.674 119.8L469.517 111.643L430.564 150.595ZM413.326 94.4042L366.586 141.145L422.405 142.436L461.356 103.485L453.197 95.326L413.326 94.4042ZM486.571 159.859L486.939 175.807L495.099 183.967L534.048 145.017L533.311 113.119L486.571 159.859ZM427.985 38.9515L389.033 77.9018L397.192 86.0605L413.142 86.4292L459.883 39.6883L427.985 38.9515ZM485.095 96.0642L486.386 151.886L533.126 105.145L532.205 65.2706L524.047 57.1126L485.095 96.0642ZM467.858 39.8727L421.117 86.6136L476.938 87.9042L515.888 48.9539L507.729 40.7946L467.858 39.8727Z" fill="black"/>
<path d="M0 408.066V23.0659H385L0 408.066Z" fill="#454551"/>
</svg>
