<svg width="70" height="70" viewBox="0 0 70 70" fill="none" xmlns="http://www.w3.org/2000/svg">
<g clip-path="url(#clip0_97_29)">
<path d="M36.9988 4.00002C38.1033 4.0007 38.9993 3.10583 39 2.00126C39.0007 0.89669 38.1058 0.000702884 37.0012 1.60196e-05L37 2.00002L36.9988 4.00002ZM57.9965 25.1179C58.0616 24.0153 57.2205 23.0686 56.1179 23.0035C55.0152 22.9384 54.0686 23.7795 54.0035 24.8821L56 25L57.9965 25.1179ZM36.9843 25.7325L38.9839 25.6917L36.9843 25.7325ZM37.6957 26.1754L36.8499 24.363L37.6957 26.1754ZM36.5208 3.02042L34.5212 3.06123L36.5208 3.02042ZM41.5 60L41.5 58L41.5 60ZM67 60L67 58L67 60ZM6.34493 33.2446L4.57509 32.3131L6.34493 33.2446ZM43.4443 38.4722L44.3387 36.6833L43.4443 38.4722ZM37.2236 35.3618L36.3292 37.1507L37.2236 35.3618ZM21.5 68V70L42 70V68V66L21.5 66L21.5 68ZM20.5 67H22.5V56.5H20.5H18.5V67H20.5ZM19.5 55.5V53.5L7.5 53.5L7.5 55.5V57.5L19.5 57.5V55.5ZM6.5 54.5H8.5L8.5 47.0466H6.5H4.5L4.5 54.5H6.5ZM3.05806 39.4897L4.8279 40.4212L8.11477 34.1761L6.34493 33.2446L4.57509 32.3131L1.28822 38.5582L3.05806 39.4897ZM6.92462 30.5895L8.92281 30.5045C8.52244 21.0923 10.424 14.626 14.6674 10.4656C18.9414 6.2752 26.023 3.99319 36.9988 4.00002L37 2.00002L37.0012 1.60196e-05C25.6126 -0.00706587 17.2453 2.33629 11.867 7.6094C6.45816 12.9125 4.50418 20.7479 4.92643 30.6745L6.92462 30.5895ZM47 63H49V58H47L45 58V63L47 63ZM67 60L67 58L41.5 58L41.5 60L41.5 62L67 62L67 60ZM36.5 55H38.5L38.5 35.809H36.5H34.5L34.5 55H36.5ZM37.2236 35.3618L36.3292 37.1507L42.5498 40.261L43.4443 38.4722L44.3387 36.6833L38.118 33.573L37.2236 35.3618ZM68 40H66V59H68H70V40H68ZM45.6803 39V41H51V39V37H45.6803V39ZM51 39V41H67V39V37H51V39ZM51 39L52.6108 40.1855C54.3572 37.8125 55.6354 35.7405 56.5071 33.3644C57.3785 30.9892 57.8011 28.4275 57.9965 25.1179L56 25L54.0035 24.8821C53.8205 27.9809 53.4383 30.1158 52.7519 31.9867C52.0658 33.8568 51.0332 35.5807 49.3892 37.8146L51 39ZM56 23V25H67V23V21H56V23ZM68 22H70V3.00002L68 3.00002H66V22L68 22ZM67 2.00002V1.5633e-05L37.5206 1.5633e-05V2.00002V4.00002L67 4.00002V2.00002ZM36.5208 3.02042L34.5212 3.06123L34.9848 25.7733L36.9843 25.7325L38.9839 25.6917L38.5204 2.97961L36.5208 3.02042ZM37.6957 26.1754L38.5414 27.9877L44.3406 25.2815L43.4948 23.4691L42.649 21.6567L36.8499 24.363L37.6957 26.1754ZM45.6092 23V25L56 25V23V21L45.6092 21V23ZM43.4948 23.4691L44.3406 25.2815C44.7378 25.0961 45.1709 25 45.6092 25V23V21C44.5864 21 43.5759 21.2242 42.649 21.6567L43.4948 23.4691ZM36.9843 25.7325L34.9848 25.7733C35.0216 27.5799 36.904 28.7519 38.5414 27.9877L37.6957 26.1754L36.8499 24.363C37.8324 23.9045 38.9618 24.6077 38.9839 25.6917L36.9843 25.7325ZM37.5206 2.00002V1.5633e-05C35.8398 1.5633e-05 34.4869 1.38076 34.5212 3.06123L36.5208 3.02042L38.5204 2.97961C38.5318 3.53977 38.0809 4.00002 37.5206 4.00002V2.00002ZM68 3.00002L70 3.00002C70 1.34316 68.6569 1.5633e-05 67 1.5633e-05V2.00002V4.00002C66.4477 4.00002 66 3.5523 66 3.00002H68ZM67 23V25C68.6569 25 70 23.6569 70 22H68L66 22C66 21.4477 66.4477 21 67 21V23ZM68 40H70C70 38.3432 68.6569 37 67 37V39V41C66.4477 41 66 40.5523 66 40H68ZM41.5 60L41.5 58C39.8431 58 38.5 56.6569 38.5 55H36.5H34.5C34.5 58.866 37.634 62 41.5 62L41.5 60ZM67 60L67 62C68.6569 62 70 60.6569 70 59H68H66C66 58.4477 66.4477 58 67 58L67 60ZM6.34493 33.2446L8.11477 34.1761C8.71909 33.0279 8.97585 31.7514 8.92281 30.5045L6.92462 30.5895L4.92643 30.6745C4.95157 31.2655 4.82758 31.8334 4.57509 32.3131L6.34493 33.2446ZM3.45984 42.9757L4.57324 41.3143C4.55206 41.3001 4.56874 41.3078 4.58442 41.3372C4.5964 41.3597 4.58413 41.3511 4.58016 41.2845C4.57062 41.1248 4.62251 40.8114 4.8279 40.4212L3.05806 39.4897L1.28822 38.5582C0.846739 39.397 0.52263 40.4401 0.587262 41.5228C0.656016 42.6747 1.17748 43.8538 2.34644 44.6372L3.45984 42.9757ZM6.5 47.0466H8.5C8.5 45.5301 7.81283 44.3129 7.04847 43.4188C6.29314 42.5354 5.35376 41.8374 4.57324 41.3143L3.45984 42.9757L2.34644 44.6372C3.02832 45.0941 3.60902 45.5513 4.00818 46.0182C4.39829 46.4745 4.5 46.8026 4.5 47.0466H6.5ZM7.5 55.5L7.5 53.5C8.05228 53.5 8.5 53.9477 8.5 54.5H6.5H4.5C4.5 56.1569 5.84315 57.5 7.5 57.5V55.5ZM20.5 56.5H22.5C22.5 54.8432 21.1569 53.5 19.5 53.5V55.5V57.5C18.9477 57.5 18.5 57.0523 18.5 56.5H20.5ZM43.4443 38.4722L42.5498 40.261C43.5218 40.747 44.5936 41 45.6803 41V39V37C45.2146 37 44.7553 36.8916 44.3387 36.6833L43.4443 38.4722ZM42 68V70C45.866 70 49 66.866 49 63H47L45 63C45 64.6569 43.6569 66 42 66V68ZM36.5 35.809H38.5C38.5 36.9241 37.3265 37.6493 36.3292 37.1507L37.2236 35.3618L38.118 33.573C36.4558 32.7418 34.5 33.9506 34.5 35.809H36.5ZM21.5 68L21.5 66C22.0523 66 22.5 66.4478 22.5 67H20.5H18.5C18.5 68.6569 19.8431 70 21.5 70V68Z" fill="#840007"/>
<circle cx="45.5" cy="12.5" r="3.5" fill="#840007"/>
<circle cx="53.5" cy="12.5" r="3.5" fill="#840007"/>
<circle cx="61.5" cy="12.5" r="3.5" fill="#840007"/>
</g>
<defs>
<clipPath id="clip0_97_29">
<rect width="70" height="70" fill="white"/>
</clipPath>
</defs>
</svg>
