<svg width="70" height="70" viewBox="0 0 70 70" fill="none" xmlns="http://www.w3.org/2000/svg">
<path d="M2.5 53.5V60.5C2.5 61.0523 2.94772 61.5 3.5 61.5H66.5C67.0523 61.5 67.5 61.0523 67.5 60.5V53.5M2.5 53.5H67.5M2.5 53.5V45M67.5 53.5V45M67.5 45V9.00772C67.5 8.45243 67.0476 8.00348 66.4923 8.00775L3.49231 8.49237C2.94304 8.49659 2.5 8.94305 2.5 9.49234V45M67.5 45H2.5" stroke="#840007" stroke-width="4" stroke-linecap="round"/>
<path d="M59.5 45C61.1274 39.6347 62.8344 37.8185 67.5 37M2.5 37C7.59621 38.0373 9.33199 39.6982 10 45M10 8.5C9.88874 13.1567 7.86111 14.8347 2.5 17M60 8C60.5443 12.929 61.9768 14.8388 67.5 16" stroke="#840007" stroke-width="4" stroke-linecap="round"/>
<circle cx="35" cy="26" r="10" stroke="#840007" stroke-width="4"/>
<circle cx="14" cy="27" r="4" stroke="#840007" stroke-width="4"/>
<circle cx="56" cy="27" r="4" stroke="#840007" stroke-width="4"/>
</svg>
