<svg width="101" height="101" viewBox="0 0 101 101" fill="none" xmlns="http://www.w3.org/2000/svg">
<path d="M28.2891 2.53052C32.7608 -1.34746 39.2911 -0.779562 43.7471 4.31274C47.4521 8.54705 48.8348 11.2552 49.6914 13.5999C49.7234 13.6875 49.7524 13.7741 49.7822 13.8577C49.7874 13.8435 49.7926 13.829 49.7979 13.8147C50.6545 11.47 52.0371 8.76194 55.7422 4.52759C60.1981 -0.564778 66.7285 -1.13252 71.2002 2.74536C74.8875 5.94331 76.4193 11.4738 74.9043 18.0032H84.5918L84.6836 18.009C86.5195 18.1217 88.5339 18.3975 90.2656 19.4729C92.0266 20.5665 93.1066 22.225 93.7598 24.2659L93.8848 24.679L93.9756 24.9973L93.9951 25.3274L94.4951 33.8274L94.5029 33.9729L94.498 34.1194C94.4337 35.7845 94.1461 38.087 92.1953 39.6057C90.9231 40.5961 89.3225 40.9284 87.6992 41.0032H88V53.0637L88.7969 53.011C92.3509 52.7697 95.8253 53.0167 98.0303 55.4241C99.1341 56.6295 99.6481 58.0963 99.8818 59.5374C100.112 60.9542 100.101 62.5404 99.9941 64.1975L99.9346 65.1194L99.3662 65.8479C90.4072 77.3426 85.2047 83.5957 75.7656 94.47L75.6738 94.5754L75.5723 94.6721C73.2687 96.8731 71.5398 97.9754 68.0742 99.3049L67.6943 99.4504L67.2891 99.4905C53.0699 100.867 45.0278 100.938 30.8105 99.9973C25.2972 99.6494 21.5651 98.6703 16.9717 97.3889C16.7886 98.8133 15.6102 99.9255 14.1543 99.9993L14 100.003H3L2.8457 99.9993C1.26059 99.919 3.99439e-05 98.6082 0 97.0032V62.0032C0.000216449 60.3465 1.34328 59.0032 3 59.0032H12V41.011C10.3091 40.9544 8.62892 40.6375 7.30469 39.6067C5.35405 38.088 5.06629 35.7854 5.00195 34.1204L4.99707 33.9739L5.00488 33.8284L5.50488 25.3284L5.52441 24.9983L5.61523 24.6809L5.74023 24.2668C6.39336 22.2261 7.47355 20.5675 9.23438 19.4739C10.9661 18.3985 12.9806 18.1227 14.8164 18.01L14.9082 18.0042H24.6387C23.0388 11.3807 24.5611 5.76373 28.2891 2.53052ZM90.3828 58.9426C81.8817 68.3097 77.1113 73.0736 69.0605 80.6838L68.3984 81.3098L67.499 81.4622C61.6134 82.453 54.2857 82.7022 48.7188 82.7151C45.9145 82.7216 43.5121 82.6671 41.8984 82.6116C41.0948 82.5839 40.4728 82.5553 40.0889 82.5325C39.9423 82.5238 39.7155 82.5101 39.543 82.4875C39.5111 82.4834 39.4509 82.4755 39.3779 82.4622C39.3589 82.4587 39.1267 82.4199 38.8545 82.3176C38.833 82.3098 38.2183 82.1061 37.6934 81.5315C37.3877 81.1346 36.9495 80.0013 36.917 79.2815C37.051 78.5946 37.6153 77.5738 37.9473 77.2375C38.5038 76.7568 39.0958 76.6192 39.1201 76.6125C39.2838 76.5678 39.4164 76.547 39.4746 76.5383C39.6724 76.5091 39.8427 76.5054 39.8555 76.5051C39.9109 76.5035 39.9629 76.5032 40.001 76.5032C40.9439 76.5034 45.5645 76.786 51.1904 76.2014C55.9319 75.7087 60.8519 74.6357 64.5049 72.5842C64.1435 72.0829 63.8478 71.7906 63.5996 71.6057C63.2089 71.3148 62.6976 71.1063 61.4219 71.0071C51.8517 71.3701 46.8759 71.0996 41.3369 68.7688L41.041 68.6448L40.7803 68.4612C36.1124 65.1937 32.2196 63.8898 28.6045 63.9407C25.0518 63.9908 21.3417 65.3563 17 68.2747V91.1672C22.0687 92.5816 25.3328 93.5399 30.1836 93.9368L31.1885 94.009L31.1973 94.01C44.9723 94.9215 52.6728 94.8611 66.291 93.5569C68.759 92.5843 69.7827 91.8928 71.334 90.4211C80.4451 79.923 85.5494 73.7911 94.0508 62.9016C94.0877 61.8661 94.0556 61.0873 93.96 60.4973C93.8421 59.7712 93.6633 59.5411 93.6045 59.4768C93.4971 59.3601 92.9187 58.8925 90.3828 58.9426ZM6 94.0032H11V65.0032H6V94.0032ZM59 65.0842C59.7538 65.0633 60.5474 65.0384 61.3848 65.0061L61.5459 64.9993L61.707 65.01C63.554 65.1379 65.4363 65.4929 67.1846 66.7952C68.5368 67.8026 69.587 69.2153 70.5508 70.9543C74.4705 67.1434 77.8883 63.6524 82.1934 59.0032H82V41.0032H59V65.0842ZM47 64.0032H45.7549C47.8081 64.6441 49.997 64.9798 53 65.093V24.0042H47V64.0032ZM18 60.7288C21.4495 58.9914 24.9159 57.9915 28.5205 57.9407C32.7132 57.8817 36.8099 59.1063 41 61.4963V41.0042H18V60.7288ZM15.1182 24.0042C13.5116 24.1074 12.7901 24.328 12.3994 24.5706C12.1695 24.7134 11.8126 25.0096 11.4736 26.0491L11.0059 34.0081C11.0274 34.4456 11.066 34.721 11.1035 34.8879C11.1581 34.9018 11.2272 34.9197 11.3145 34.9348C11.732 35.007 12.3824 35.0461 13.3828 35.0071L13.4414 35.0042H41V24.0042H15.1182ZM59 35.0032H86.0586L86.1172 35.0061C87.1177 35.0451 87.768 35.006 88.1855 34.9338C88.2729 34.9187 88.3419 34.9009 88.3965 34.887C88.434 34.72 88.4726 34.4448 88.4941 34.0071L88.0264 26.0481C87.6873 25.0082 87.3305 24.7124 87.1006 24.5696C86.7108 24.3276 85.992 24.1068 84.3936 24.0032H59V35.0032ZM39.2314 8.26392C36.6876 5.35687 33.9043 5.60272 32.2197 7.06372C30.5212 8.53705 28.9689 12.1399 30.8623 18.0042H41V18.0032H44.8604C44.5316 17.1257 44.3062 16.3442 44.0557 15.6584C43.4897 14.1093 42.526 12.0291 39.2314 8.26392ZM67.2695 7.27856C65.5849 5.81765 62.8016 5.57166 60.2578 8.47876C56.9632 12.244 55.9996 14.3241 55.4336 15.8733C55.2037 16.5025 54.9956 17.2125 54.709 18.0032H68.6934C70.4804 12.2658 68.9472 8.73378 67.2695 7.27856Z" fill="black"/>
</svg>
