<svg width="101" height="112" viewBox="0 0 101 112" fill="none" xmlns="http://www.w3.org/2000/svg">
<path d="M52.7295 0.163055C52.9278 -0.0542384 53.2705 -0.0544648 53.4687 0.163055L62.2715 9.82516C62.4029 9.9689 62.6063 10.0237 62.792 9.96481L75.2461 5.99899C75.5265 5.90995 75.8237 6.08072 75.8867 6.36813L78.6797 19.1367C78.7215 19.3273 78.87 19.4767 79.0605 19.5185L91.8291 22.3105C92.1164 22.3737 92.2884 22.6708 92.1992 22.9511L88.2334 35.4052C88.1742 35.5913 88.2287 35.7952 88.373 35.9267L98.0342 44.7295C98.2513 44.9278 98.2515 45.2705 98.0342 45.4687L88.373 54.2715C88.2287 54.403 88.1742 54.6059 88.2334 54.792L92.1992 67.2461C92.2882 67.5264 92.1164 67.8236 91.8291 67.8867L79.0605 70.6787C78.8699 70.7205 78.7215 70.8699 78.6797 71.0605L75.8867 83.8291C75.8238 84.1165 75.5265 84.2881 75.2461 84.1992L62.4873 80.1357L51.0898 77.5205C51.0311 77.507 50.9699 77.5045 50.9101 77.5127L43.8955 78.4746C43.7766 78.4909 43.6553 78.4638 43.5547 78.3984L34.5713 72.5459C34.5248 72.5156 34.4728 72.4929 34.4189 72.4795L27.4502 70.748L14.3682 67.8867C14.0807 67.8237 13.9098 67.5265 13.999 67.2461L17.9648 54.792C18.0238 54.6062 17.9689 54.4029 17.8252 54.2715L8.16307 45.4687C7.94554 45.2705 7.94574 44.9278 8.16307 44.7295L17.8252 35.9267C17.9694 35.7953 18.0239 35.5912 17.9648 35.4052L13.999 22.9511C13.9097 22.6706 14.0806 22.3735 14.3682 22.3105L27.1367 19.5185C27.3273 19.4767 27.4768 19.3273 27.5185 19.1367L30.3115 6.36813C30.3746 6.08065 30.6707 5.90968 30.9512 5.99899L43.4053 9.96481C43.5912 10.0238 43.7953 9.96936 43.9267 9.82516L52.7295 0.163055ZM67.2666 50.7666C62.5717 50.7668 58.7659 54.5727 58.7656 59.2675C58.7657 63.8161 62.338 67.5313 66.8301 67.7588L67.2666 67.7695C71.8152 67.7695 75.5302 64.1971 75.7578 59.705L75.7685 59.2675C75.7683 54.5725 71.9617 50.7666 67.2666 50.7666ZM67.2666 52.7666C70.8571 52.7666 73.7683 55.6771 73.7685 59.2675C73.7684 62.8581 70.8572 65.7695 67.2666 65.7695C63.6762 65.7692 60.7657 62.858 60.7656 59.2675C60.7659 55.6773 63.6763 52.7668 67.2666 52.7666ZM73.6133 28.831C73.2387 28.4253 72.606 28.3999 72.2002 28.7744L36.8301 61.4238C36.4247 61.7984 36.3991 62.4312 36.7734 62.8369C37.1479 63.2421 37.7808 63.2675 38.1865 62.8935L73.5576 30.2441C73.963 29.8696 73.9874 29.2368 73.6133 28.831ZM44.5957 28.0957C39.9011 28.0961 36.0951 31.902 36.0947 36.5966C36.0948 41.1451 39.6672 44.8602 44.1592 45.0879L44.5957 45.0986C49.1442 45.0985 52.8594 41.5262 53.0869 37.0341L53.0976 36.5966C53.0973 31.9018 49.2906 28.0958 44.5957 28.0957ZM44.5957 30.0957C48.186 30.0958 51.0973 33.0064 51.0976 36.5966C51.0976 40.1872 48.1862 43.0985 44.5957 43.0986C41.0055 43.0981 38.0948 40.187 38.0947 36.5966C38.0951 33.0066 41.0057 30.0961 44.5957 30.0957Z" fill="#840007" fill-opacity="0.8"/>
<path d="M88.7969 64.0732C92.351 63.8319 95.8254 64.0788 98.0303 66.4863C99.1342 67.6919 99.6482 69.1584 99.8818 70.5996C100.112 72.0165 100.101 73.6025 99.9941 75.2598L99.9346 76.1816L99.3662 76.9101C90.4072 88.4049 85.2049 94.6578 75.7656 105.532L75.6738 105.638L75.5723 105.734C73.2687 107.935 71.5399 109.038 68.0742 110.367L67.6943 110.513L67.2891 110.553C53.0699 111.929 45.0278 112 30.8105 111.06C25.2971 110.712 21.5651 109.733 16.9717 108.451C16.7886 109.876 15.6102 110.988 14.1543 111.062L14 111.065H3L2.8457 111.062C1.26058 110.981 3.99441e-05 109.67 0 108.065V73.0654C0 71.4086 1.34315 70.0654 3 70.0654H17V72.3125C20.7801 70.2528 24.5677 69.0586 28.5205 69.0029C33.6844 68.9303 38.7018 70.8058 43.9287 74.4062C48.0899 76.105 51.969 76.4315 61.3848 76.0683L61.5459 76.0615L61.707 76.0723C63.554 76.2001 65.4363 76.555 67.1846 77.8574C68.5368 78.8649 69.5869 80.2774 70.5508 82.0166C75.759 76.953 80.0806 72.4539 86.7754 65.0527L87.5889 64.1543L88.7969 64.0732ZM90.3828 70.0049C81.8816 79.372 77.1114 84.1358 69.0605 91.7461L68.3984 92.3721L67.499 92.5244C61.6134 93.5153 54.2857 93.7644 48.7188 93.7773C45.9145 93.7838 43.5121 93.7294 41.8984 93.6738C41.0948 93.6461 40.4728 93.6176 40.0889 93.5947C39.9423 93.586 39.7155 93.5724 39.543 93.5498C39.5111 93.5456 39.4509 93.5378 39.3779 93.5244C39.3594 93.521 39.127 93.4823 38.8545 93.3799C38.8355 93.3729 38.2194 93.1695 37.6934 92.5937C37.3877 92.1971 36.9495 91.0637 36.917 90.3437C37.0508 89.6568 37.6152 88.6361 37.9473 88.2998C38.5038 87.8189 39.0958 87.6814 39.1201 87.6748C39.2839 87.6301 39.4164 87.6092 39.4746 87.6006C39.6724 87.5713 39.8427 87.5677 39.8555 87.5674C39.9109 87.5657 39.9629 87.5654 40.001 87.5654C40.9439 87.5656 45.5645 87.8483 51.1904 87.2637C55.9319 86.7709 60.8519 85.6979 64.5049 83.6465C64.1434 83.145 63.8478 82.8529 63.5996 82.668C63.2088 82.377 62.6978 82.1686 61.4219 82.0693C51.8517 82.4324 46.8759 82.1619 41.3369 79.831L41.041 79.707L40.7803 79.5234C36.1124 76.2559 32.2196 74.952 28.6045 75.0029C25.0518 75.053 21.3418 76.4185 17 79.3369V102.229C22.0687 103.644 25.3327 104.602 30.1836 104.999L31.1885 105.071L31.1973 105.072C44.9723 105.984 52.6728 105.923 66.291 104.619C68.7591 103.647 69.7827 102.955 71.334 101.483C80.4452 90.9851 85.5494 84.8535 94.0508 73.9639C94.0877 72.9282 94.0556 72.1496 93.96 71.5596C93.8421 70.8332 93.6634 70.6034 93.6045 70.539C93.4976 70.4227 92.9202 69.9547 90.3828 70.0049ZM6 105.065H11V76.0654H6V105.065Z" fill="#020202"/>
</svg>
