<svg width="100" height="100" viewBox="0 0 100 100" fill="none" xmlns="http://www.w3.org/2000/svg">
<g clip-path="url(#clip0_97_38)">
<path d="M92.1875 11.9404L84.375 14.4277V38.8057L81.25 34.3281L78.125 38.8057V16.417L73.4375 17.9102V34.3281H71.2832C71.6294 47.7003 68.9159 56.7452 65.0518 62.6865H65.625V70.6875L92.1875 79.8506C97.8152 82.252 96.875 84.3288 97.6562 85.8213L100 100H0L3.07715 85.8213C3.84638 84.3288 2.92083 82.252 8.46191 79.8506L34.375 70.5127V62.6865H34.7148C30.9952 56.7474 28.3837 47.7047 28.7168 34.3281H26.5625V17.9102L4.6875 11.9404L49.2188 0L92.1875 11.9404ZM62.5 66.0098C58.3745 70.557 53.5889 72.3754 50 72.6133V72.6416C49.8689 72.6416 49.7357 72.6386 49.6006 72.6338C49.4612 72.6386 49.3237 72.6416 49.1885 72.6416V72.6113C45.8178 72.3717 41.3803 70.6381 37.5 66.3799V71.7695L50 81.3438L62.5 71.3926V66.0098ZM30.7158 34.3535C30.3637 48.3453 33.3042 57.2299 37.1104 62.6865H37.5V63.2275C37.5853 63.3429 37.6689 63.4582 37.7549 63.5703C41.7024 68.7168 46.438 70.4948 49.6035 70.6318C52.9219 70.4941 57.8593 68.7036 61.9658 63.5557C62.1461 63.3297 62.323 63.0958 62.5 62.8564V62.6865H62.625C66.5872 57.2328 69.6485 48.351 69.2822 34.3545L70.2822 34.3281H29.7168L30.7158 34.3535Z" fill="#840007"/>
</g>
<defs>
<clipPath id="clip0_97_38">
<rect width="100" height="100" fill="white"/>
</clipPath>
</defs>
</svg>
