<svg width="70" height="70" viewBox="0 0 70 70" fill="none" xmlns="http://www.w3.org/2000/svg">
<path d="M35 3V10" stroke="#840007" stroke-width="4"/>
<path d="M22 7L25.3805 13.1296" stroke="#840007" stroke-width="4"/>
<path d="M47.8495 6.84149L44.2407 12.8396" stroke="#840007" stroke-width="4"/>
<path d="M26.415 20C28.0691 20 29.6093 20.4468 31.0352 21.3408C32.4611 22.2348 33.9163 23.4355 35 25C36.0837 23.4355 37.5389 22.2348 38.9648 21.3408C40.3907 20.4468 41.9309 20 43.585 20H55.4766C58.7275 20 61.2946 21.2291 63.1768 23.6875C65.0589 26.146 66 29.6944 66 34.332C66 39.3047 65.0876 42.9928 63.2627 45.3955C61.4375 47.7982 58.8417 49 55.4766 49H43.585C41.9309 49 40.3907 48.5532 38.9648 47.6592C37.4819 46.7093 36.0266 45.6204 35 44C33.9734 45.6204 32.5181 46.7093 31.0352 47.6592C29.6093 48.5532 28.0691 49 26.415 49H14.5234C11.1583 49 8.56246 47.7982 6.7373 45.3955C4.9124 42.9928 4 39.3047 4 34.332C4.00005 29.6944 4.9411 26.146 6.82324 23.6875C8.70542 21.2291 11.2725 20 14.5234 20H26.415ZM15.3789 27.376C13.4967 27.376 12.0702 27.9904 11.1006 29.2197C10.1311 30.449 9.64648 32.2092 9.64648 34.5C9.64648 39.2495 11.5575 41.624 15.3789 41.624H25.3887C27.3278 41.624 28.896 41.0095 30.0938 39.7803C31.3485 38.551 31.9766 36.7909 31.9766 34.5C31.9766 32.0973 31.3774 30.3092 30.1797 29.1357C28.982 27.9624 27.3849 27.376 25.3887 27.376H15.3789ZM44.6113 27.376C42.6151 27.376 41.018 27.9624 39.8203 29.1357C38.6226 30.3092 38.0234 32.0973 38.0234 34.5C38.0234 36.7909 38.6515 38.551 39.9063 39.7803C41.104 41.0095 42.6722 41.624 44.6113 41.624H54.6211C58.4425 41.624 60.3535 39.2495 60.3535 34.5C60.3535 32.2092 59.8689 30.449 58.8994 29.2197C57.9298 27.9904 56.5033 27.376 54.6211 27.376H44.6113Z" fill="#840007"/>
<path d="M34.8495 67.1296V60.1296" stroke="#840007" stroke-width="4"/>
<path d="M47.8495 63.1296L44.469 57" stroke="#840007" stroke-width="4"/>
<path d="M22 63.2881L25.6087 57.29" stroke="#840007" stroke-width="4"/>
</svg>
